<?xml version="1.0" encoding="UTF-8" standalone="no"?>
<svg
   xmlns:dc="http://purl.org/dc/elements/1.1/"
   xmlns:cc="http://creativecommons.org/ns#"
   xmlns:rdf="http://www.w3.org/1999/02/22-rdf-syntax-ns#"
   xmlns:svg="http://www.w3.org/2000/svg"
   xmlns="http://www.w3.org/2000/svg"
   viewBox="0 0 1059.6801 714.47998"
   height="714.47998"
   width="1059.6801"
   xml:space="preserve"
   id="svg2"
   version="1.1"><metadata
     id="metadata8"><rdf:RDF><cc:Work
         rdf:about=""><dc:format>image/svg+xml</dc:format><dc:type
           rdf:resource="http://purl.org/dc/dcmitype/StillImage" /></cc:Work></rdf:RDF></metadata><defs
     id="defs6" /><g
     transform="matrix(1.3333333,0,0,-1.3333333,0,714.48)"
     id="g10"><g
       transform="scale(0.1)"
       id="g12"><path
         id="path14"
         style="fill:#ffffff;fill-opacity:1;fill-rule:nonzero;stroke:none"
         d="M 7947.59,0 H 0 V 5358.62 H 7947.59 V 0" /><path
         id="path16"
         style="fill:#292b36;fill-opacity:1;fill-rule:nonzero;stroke:none"
         d="m 4362.07,2826.82 c 23.65,62.29 41.13,151.13 12.91,212.38 -15.85,34.39 -54.73,50.58 -86.73,29.15 -25.99,-17.48 -43.61,-51.16 -63.11,-75.44 -39,-48.54 -91.18,-94.46 -144.32,-124.14 -36.36,-20.36 -32.97,-42.62 -38.52,-79.96 -5.38,-36 -14.57,-72.19 -4.59,-109.56 9.23,-34.68 31.29,-62.34 61,-82.12 31.37,-20.92 48.4,-35.75 53.15,-74.4 6.11,-49.38 20.39,-158.32 87.24,-158.8 l -2.22,4.48 c 21.85,17.19 40.41,45.29 54.19,69.3 15.8,27.44 25.34,63.21 24.03,96.19 -1.47,37.11 -14.31,69.69 -15.66,107.35 -1.31,37.6 -12,70.64 8.98,102.83 18.41,28.35 41.66,51.15 53.65,82.74" /><path
         id="path18"
         style="fill:#292b36;fill-opacity:1;fill-rule:nonzero;stroke:none"
         d="m 3663.76,2359.49 -2.22,-4.49 c 66.83,0.45 81.12,109.41 87.19,158.79 4.78,38.65 21.79,53.51 53.17,74.37 29.73,19.78 51.76,47.44 61.01,82.15 9.94,37.36 0.79,73.55 -4.59,109.56 -5.56,37.31 -2.16,59.61 -38.53,79.95 -53.12,29.7 -105.29,75.64 -144.28,124.12 -19.53,24.32 -37.15,57.98 -63.14,75.44 -31.99,21.43 -70.88,5.28 -86.74,-29.13 -28.21,-61.27 -10.69,-150.11 12.92,-212.36 12.01,-31.55 35.24,-54.41 53.68,-82.74 20.93,-32.22 10.27,-65.2 8.95,-102.87 -1.31,-37.6 -14.19,-70.19 -15.66,-107.34 -1.33,-32.97 8.23,-68.73 24.05,-96.2 13.75,-24.02 32.31,-52.1 54.19,-69.25" /><path
         id="path20"
         style="fill:#292b36;fill-opacity:1;fill-rule:nonzero;stroke:none"
         d="m 3965.41,1867.15 c 0,-11.96 -9.72,-21.68 -21.69,-21.68 -11.96,0 -21.66,9.72 -21.66,21.68 0,8.33 4.72,15.46 11.6,19.12 v -4.73 h 10.16 v 7.3 c 11.93,0 21.59,-9.76 21.59,-21.69 z m 160.9,280.82 c -24.88,-14.21 -48.71,-31.48 -71.72,-48.19 -6.44,-4.68 -12.85,-9.28 -19.36,-13.92 -9.96,-7.11 -22.44,-13.02 -35.67,-19.29 -4.7,-2.18 -9.42,-4.48 -14.11,-6.79 v 13.02 h -88.98 v -14.48 c -5.81,3.01 -11.82,5.83 -17.79,8.65 -13.2,6.23 -25.68,12.06 -35.68,19.16 -6.49,4.57 -12.94,9.21 -19.3,13.85 -23.1,16.68 -46.98,33.85 -71.92,48.1 -35.22,20.08 -71.8,35.12 -100.8,9.69 -25.16,-22.03 -36.53,-62.27 -26.96,-95.72 4.58,-16.19 13.67,-27.87 22.42,-39.1 11.72,-15 22.8,-29.17 22.98,-53.27 0.1,-11.81 -3.39,-23.73 -6.77,-35.27 -6.41,-21.91 -13.04,-44.53 5.77,-65.84 13.89,-15.76 31.65,-21.87 50.84,-21.87 61.54,0 137.83,62.67 148.66,71.95 3.06,2.58 7.34,5.84 12.32,9.65 4.89,3.73 10.48,8.04 16.23,12.69 v -7.06 h 37.19 v -36.78 c -12.56,-4.25 -21.69,-16.04 -21.69,-30 0,-12.71 7.61,-23.7 18.46,-28.74 -28.08,-1.31 -52.98,-2.5 -52.98,-2.5 -17.76,28.61 -45.6,15.63 -45.6,15.63 -35.22,-18.46 5.22,-47.58 5.22,-47.58 -6.29,-5.23 -14.31,-13.26 -17.19,-21.15 -4.3,-11.91 3.82,-23.22 13.6,-28.69 8.97,-5.04 19.88,-3.46 28.15,2.46 3.69,2.66 7.01,5.92 10.18,9.16 1.06,1.15 5.42,7.66 6.75,7.73 0.6,0.04 135.6,5.49 135.6,5.49 5.86,-4.65 12.01,-9.18 18.44,-12.99 10.48,-6.01 23.86,-9.96 32.52,1.08 5.5,7.03 9.78,22.34 5.97,31.07 -1.9,4.42 -5.46,7.91 -9.45,10.49 -1.27,0.82 -7.64,4.92 -9.1,4.08 9.29,5.24 19.84,13.85 19.47,25.6 -0.18,6.23 -4.51,13.86 -9.05,17.82 -9.68,8.65 -23.61,9.32 -34.65,3.21 -5.4,-3.01 -10.22,-7.02 -14.66,-11.28 -0.66,-0.58 -4.61,-5.86 -5.36,-5.89 0,0 -22.42,-1.08 -48.7,-2.35 9.49,5.51 15.94,15.63 15.94,27.35 0,17.5 -14.23,31.77 -31.71,31.77 v 35.01 h 41.63 v 3.97 c 4.55,-3.61 8.93,-6.95 12.84,-9.96 4.98,-3.85 9.29,-7.1 12.34,-9.64 10.89,-9.21 87.12,-71.64 148.65,-71.64 19.24,0 37.09,6.15 50.99,21.95 18.73,21.35 12.06,43.97 5.61,65.88 -3.39,11.54 -6.9,23.46 -6.84,35.31 0.14,24.05 11.21,38.26 22.87,53.3 8.73,11.23 17.79,22.87 22.39,39.14 9.45,33.42 -2.01,73.66 -27.23,95.69 -29,25.31 -65.58,10.15 -100.76,-9.96" /><path
         id="path22"
         style="fill:#292b36;fill-opacity:1;fill-rule:nonzero;stroke:none"
         d="m 3876.81,2410.05 c 43.16,-29.68 32.09,68.17 69.95,22.54 22,-26.48 -44.13,-182.48 -142.57,-206.44 -17.8,-4.34 -48.89,11.7 -63.32,22.73 -0.62,-24.53 29.39,-47.69 50.98,-48.92 91.19,-5.21 140.64,84.76 167.07,123.73 26.43,-38.97 75.85,-128.94 167.06,-123.73 21.63,1.23 51.61,24.39 50.95,48.92 -14.4,-11.03 -45.51,-27.07 -63.28,-22.73 -98.47,23.96 -164.55,179.96 -142.57,206.44 37.88,45.63 26.77,-52.22 69.96,-22.54 30.77,21.23 -0.5,71.39 -17.97,91.29 -16.68,18.99 -39.66,31.49 -64.15,31.57 -24.51,-0.08 -47.46,-12.58 -64.13,-31.57 -17.48,-19.9 -48.75,-70.06 -17.98,-91.29" /><path
         id="path24"
         style="fill:#292b36;fill-opacity:1;fill-rule:nonzero;stroke:none"
         d="m 4123.61,3688.35 c -53.63,6.9 -83.73,19.95 -91.32,23.2 -43.5,-69.22 -46.4,-148.59 -99.68,-209.49 -76.83,-87.35 -306.63,-61.97 -257.7,92.79 10.88,33.71 46.76,48.57 44.59,33.34 -5.81,-7.24 -31.53,-15.59 -37.35,-50.01 -13.03,-74.31 54.02,-114.17 109.84,-113.09 56.9,1.45 95.68,24.29 123.22,54.37 43.85,47.48 91.33,175.42 106.55,195.72 -38.05,11.96 -71.03,18.12 -109.81,19.93 -103.65,5.07 -145.34,-101.11 -88.43,-119.24 44.58,-14.14 70.67,30.8 69.22,40.95 v 0.73 c 3.62,3.26 7.25,1.81 7.25,-2.9 -4.7,-38.78 -46.03,-59.44 -80.11,-47.84 -73.93,25.74 -46.39,159.11 89.53,146.79 43.5,-3.62 94.95,-25.01 118.15,-31.53 3.27,3.99 18.85,22.1 26.82,22.1 h -0.36 c 11.6,3.63 14.5,-14.13 2.54,-10.51 -3.26,2.54 -14.14,-9.78 -18.85,-14.49 31.18,-10.15 119.24,-34.44 119.24,-9.79 0,3.26 0.74,5.44 3.99,5.44 2.54,0 3.63,-5.8 3.63,-7.62 0,-13.77 -18.11,-21.74 -40.96,-18.85" /><path
         id="path26"
         style="fill:#292b36;fill-opacity:1;fill-rule:nonzero;stroke:none"
         d="m 4076.88,3484.67 c -12.69,0 -30.07,8.7 -19.2,42.4 2.9,9.43 9.78,21.75 19.92,38.06 8.71,14.14 2.19,23.92 -25.73,-2.17 -12.33,-11.24 -30.09,-31.54 -50.74,-71.77 -2.54,-5.07 -5.8,-5.44 -13.42,-5.44 -5.43,-0.36 -8.69,0 -12.32,-2.17 29.38,60.89 64.53,134.83 99.67,199.7 8.36,15.22 14.15,23.57 25.74,22.84 4.72,-0.37 10.16,-2.18 15.22,-1.46 -15.94,-16.31 -63.07,-105.1 -92.79,-165.62 9.8,12.32 19.58,23.55 29.37,31.88 17.4,15.59 54.72,38.43 67.05,34.07 0,0 -38.77,-68.14 -43.5,-93.5 -2.89,-14.87 0.73,-18.85 5.44,-19.21 16.67,-1.09 41.31,48.21 48.94,63.79 3.24,6.52 8.69,3.98 5.08,-3.63 -11.98,-25 -31.92,-67.77 -58.73,-67.77" /><path
         id="path28"
         style="fill:#292b36;fill-opacity:1;fill-rule:nonzero;stroke:none"
         d="m 4171.11,3582.16 c -9.41,-11.59 -18.48,-27.55 -21.73,-34.06 6.5,0 25.35,5.07 38.41,15.94 29.73,25.01 27.89,72.13 -16.68,18.12 z m -14.85,-97.49 c -18.13,0 -34.42,11.95 -34.8,34.79 -0.37,21.75 11.96,48.94 27.92,67.77 18.47,21.75 46.01,35.53 61.97,23.57 13.77,-10.52 3.26,-35.16 -19.94,-52.92 -11.24,-8.34 -34.79,-15.94 -44.57,-15.94 -5.44,-13.05 -11.62,-49.66 12.32,-49.66 31.88,0 51.47,42.77 59.8,61.97 2.9,6.52 10.14,7.26 6.51,-0.36 -13.4,-28.99 -28.99,-69.22 -69.21,-69.22" /><path
         id="path30"
         style="fill:#292b36;fill-opacity:1;fill-rule:nonzero;stroke:none"
         d="m 3136.52,2524.76 c 1.09,2.97 1.79,8.15 2.34,12.37 4.55,32.64 -10.5,56.38 -48.33,61.37 -34.07,4.49 -52.82,-12.64 -56.93,-43.65 -1.02,-7.76 -1.04,-13.25 -0.74,-16.42 z m -133.74,-18.69 c -0.61,13.47 0.48,30.78 2.84,48.63 3.98,30.34 11.53,49.42 25.02,62.93 14.4,14.85 35.5,22.58 63.72,18.86 30.29,-3.99 49.76,-17.8 60.69,-34.54 11.67,-18.52 14.89,-45.01 10.78,-76.04 -2.44,-18.55 -5.38,-31.79 -7.7,-40.33 l -155.35,20.49" /><path
         id="path32"
         style="fill:#292b36;fill-opacity:1;fill-rule:nonzero;stroke:none"
         d="m 3040.26,2719.73 154.02,-42.43 -9.56,-34.72 -154.02,42.42 9.56,34.73" /><path
         id="path34"
         style="fill:#292b36;fill-opacity:1;fill-rule:nonzero;stroke:none"
         d="m 3167.38,2718.22 c 8.19,6.91 18.53,19.11 24.32,33.41 6.25,15.38 3.18,26.1 -6.7,30.12 -9.01,3.66 -17.37,-1.14 -30.76,-16.44 -18.79,-21.06 -39.03,-31.78 -60.8,-22.95 -25.28,10.27 -35.73,39.37 -21.63,74.1 6.87,16.92 15.08,27.68 22.84,34.77 l 23.77,-18.37 c -5.17,-4.55 -13.73,-13.63 -19.52,-27.91 -5.89,-14.51 -1.95,-24.31 5.53,-27.35 9.45,-3.84 16.93,2.6 32.27,18.9 20.3,22.24 38.83,28.79 59.95,20.21 24.82,-10.09 38.25,-37.56 21.72,-78.23 -6.86,-16.92 -18.27,-31.75 -26.27,-38.23 l -24.72,17.97" /><path
         id="path36"
         style="fill:#292b36;fill-opacity:1;fill-rule:nonzero;stroke:none"
         d="m 3153.58,2908.26 -22.12,-37.02 -26.04,15.56 62.97,105.35 26.03,-15.56 -22.36,-37.42 111.06,-66.36 -18.48,-30.92 -111.06,66.37" /><path
         id="path38"
         style="fill:#292b36;fill-opacity:1;fill-rule:nonzero;stroke:none"
         d="m 3211.51,3047.42 126.63,-97.37 -21.96,-28.56 -126.64,97.38 21.97,28.55" /><path
         id="path40"
         style="fill:#292b36;fill-opacity:1;fill-rule:nonzero;stroke:none"
         d="m 3352.73,2971.46 -112.21,113.67 30.02,29.64 64.72,-18.35 c 18.58,-5.32 39.13,-12.99 57.02,-20.65 l 0.33,0.33 c -16.33,13.51 -31.98,28.36 -48.97,45.57 l -32.62,33.05 23.61,23.31 112.21,-113.68 -26.99,-26.63 -67.58,19.87 c -18.89,5.66 -40.8,12.68 -59.35,20.67 l -0.67,-0.68 c 15.83,-14.34 31.98,-30.03 50.3,-48.58 l 33.79,-34.24 -23.61,-23.3" /><path
         id="path42"
         style="fill:#292b36;fill-opacity:1;fill-rule:nonzero;stroke:none"
         d="m 3572.15,3159.46 c -7.16,-9.32 -21.81,-25.36 -39.37,-37.06 -24.25,-16.17 -45.88,-21.76 -65.86,-18.28 -19.78,3.63 -38.06,16.5 -51.08,36.03 -29.24,44.3 -13.92,90.97 29.65,120.02 17.17,11.44 32.6,16.89 41.08,18.27 l 9.86,-28.46 c -9.53,-1.51 -19.98,-5.06 -34.57,-14.79 -25.04,-16.69 -34.7,-43.65 -15.52,-72.43 18.42,-27.61 46.42,-32.02 71.06,-15.59 6.71,4.48 11.71,8.95 13.42,11.51 l -18.68,28 -20.51,-13.67 -15.64,23.46 49.49,33 46.67,-70.01" /><path
         id="path44"
         style="fill:#292b36;fill-opacity:1;fill-rule:nonzero;stroke:none"
         d="m 3566.39,3324.27 35.4,-84.59 c 10.7,-25.58 25.92,-34.36 42.77,-27.31 17.48,7.31 21.96,23.58 10.99,49.8 l -35.38,84.6 33.21,13.9 34.57,-82.63 c 19.03,-45.46 5.14,-76.71 -33.34,-92.8 -37.16,-15.55 -67.48,-3.84 -87.07,42.94 l -34.38,82.18 33.23,13.91" /><path
         id="path46"
         style="fill:#292b36;fill-opacity:1;fill-rule:nonzero;stroke:none"
         d="m 3734.84,3382.43 40.96,-154.44 -34.83,-9.23 -40.96,154.43 34.83,9.24" /><path
         id="path48"
         style="fill:#292b36;fill-opacity:1;fill-rule:nonzero;stroke:none"
         d="m 3797.1,3271.78 c 10.1,-3.56 25.84,-6.3 41.1,-4.08 16.43,2.38 24.13,10.46 22.58,21.01 -1.39,9.63 -9.76,14.41 -29.73,18.21 -27.64,5.57 -47.12,17.6 -50.49,40.84 -3.93,26.98 15.87,50.71 52.96,56.1 18.05,2.63 31.48,0.98 41.5,-2.12 l -3.8,-29.79 c -6.55,2.16 -18.7,4.95 -33.95,2.74 -15.5,-2.25 -21.95,-10.62 -20.78,-18.6 1.47,-10.09 10.8,-13.29 32.6,-18.27 29.43,-6.27 44.45,-18.94 47.73,-41.47 3.86,-26.53 -13.06,-51.99 -56.48,-58.3 -18.07,-2.63 -36.63,-0.28 -46.25,3.35 l 3.01,30.38" /><path
         id="path50"
         style="fill:#292b36;fill-opacity:1;fill-rule:nonzero;stroke:none"
         d="m 3962.06,3410.39 -1.69,-61.58 59.45,-1.64 1.7,61.58 36,-0.98 -4.39,-159.66 -35.99,0.99 1.82,66.56 -59.44,1.64 -1.85,-66.57 -36,1 4.39,159.65 36,-0.99" /><path
         id="path52"
         style="fill:#292b36;fill-opacity:1;fill-rule:nonzero;stroke:none"
         d="m 4184.28,3291.54 -57.69,11.53 -7.44,-37.21 64.4,-12.87 -5.8,-29.08 -99.75,19.96 31.36,156.72 96.48,-19.29 -5.81,-29.07 -61.15,12.23 -6.52,-32.56 57.67,-11.53 -5.75,-28.83" /><path
         id="path54"
         style="fill:#292b36;fill-opacity:1;fill-rule:nonzero;stroke:none"
         d="m 4238.79,3232.13 c 2.6,-1.79 7.46,-3.68 11.42,-5.23 30.6,-12.2 57.25,-3.28 71.12,32.28 12.5,32 0.35,54.29 -28.79,65.68 -7.29,2.84 -12.62,4.16 -15.76,4.62 z m 13.77,134.3 c 13.21,-2.62 29.76,-7.81 46.52,-14.37 28.48,-11.11 45.23,-22.99 55.13,-39.32 10.97,-17.52 13.43,-39.85 3.09,-66.34 -11.11,-28.48 -29.17,-44.07 -48.04,-50.7 -20.74,-6.9 -47.22,-3.69 -76.37,7.69 -17.42,6.8 -29.59,12.83 -37.32,17.11 l 56.99,145.93" /><path
         id="path56"
         style="fill:#292b36;fill-opacity:1;fill-rule:nonzero;stroke:none"
         d="m 4503.77,3246.49 -35.96,-50.06 48.34,-34.7 35.96,50.05 29.25,-21.01 -93.18,-129.77 -29.29,21.01 38.88,54.11 -48.33,34.71 -38.85,-54.1 -29.28,21.01 93.22,129.77 29.24,-21.02" /><path
         id="path58"
         style="fill:#292b36;fill-opacity:1;fill-rule:nonzero;stroke:none"
         d="m 4572.91,3012.29 c 16.66,-17.84 43.01,-12.38 65.88,8.99 20.99,19.59 29.8,46.3 12.77,64.49 -16.99,18.2 -44.21,11.92 -66.03,-8.47 -22.03,-20.56 -29.3,-47.16 -12.79,-64.83 z m -22.11,-18.36 c -32.23,34.48 -25.16,79.37 8.14,110.44 35.01,32.69 82.22,34.61 114.24,0.29 33.5,-35.87 24.93,-80.55 -7.3,-110.65 -38.49,-35.93 -83.05,-34.4 -114.92,-0.26 l -0.16,0.18" /><path
         id="path60"
         style="fill:#292b36;fill-opacity:1;fill-rule:nonzero;stroke:none"
         d="m 4769.9,2978.48 -77.99,-48.36 c -23.57,-14.61 -29.83,-31.05 -20.23,-46.57 10,-16.12 26.8,-18 51,-3 l 77.98,48.35 18.97,-30.62 -76.15,-47.24 c -41.92,-25.98 -75,-17.19 -97,18.28 -21.23,34.26 -14.45,66.07 28.66,92.81 l 75.8,46.99 18.96,-30.64" /><path
         id="path62"
         style="fill:#292b36;fill-opacity:1;fill-rule:nonzero;stroke:none"
         d="m 4694.63,2792.69 149.41,56.63 14.96,-39.45 -42.98,-51.79 c -12.39,-14.84 -27.74,-30.54 -42,-43.8 l 0.22,-0.44 c 18.96,9.48 38.89,17.79 61.5,26.35 l 43.42,16.48 11.78,-31.05 -149.42,-56.62 -13.45,35.47 45.56,53.77 c 12.82,15 28.11,32.2 42.91,45.93 l -0.33,0.89 c -19.51,-8.68 -40.43,-17.1 -64.8,-26.35 l -45,-17.05 -11.78,31.03" /><path
         id="path64"
         style="fill:#292b36;fill-opacity:1;fill-rule:nonzero;stroke:none"
         d="m 4780.59,2615.44 c -0.22,-3.16 0.66,-8.3 1.38,-12.51 5.24,-32.53 26.58,-50.82 64.2,-44.48 33.91,5.72 46.84,27.6 41.64,58.46 -1.31,7.72 -2.95,12.97 -4.12,15.89 z m 122.34,57.14 c 4.57,-12.7 8.57,-29.56 11.58,-47.33 5.08,-30.16 3.5,-50.62 -5.47,-67.5 -9.37,-18.42 -27.3,-32.01 -55.37,-36.74 -30.12,-5.08 -52.77,2.4 -68.16,15.21 -16.6,14.27 -27.42,38.65 -32.64,69.5 -3.08,18.48 -4.16,31.99 -4.47,40.84 l 154.53,26.02" /><path
         id="path66"
         style="fill:#292b36;fill-opacity:1;fill-rule:nonzero;stroke:none"
         d="m 3953.6,1666.36 c -469.22,0 -851.13,373.81 -864.26,839.85 -0.22,-8.22 -0.36,-16.52 -0.36,-24.81 0,-477.55 387.11,-864.63 864.62,-864.63 477.55,0 864.64,387.08 864.64,864.63 0,8.29 -0.15,16.59 -0.35,24.81 -13.14,-466.04 -395.08,-839.85 -864.29,-839.85" /></g></g></svg>