<?xml version="1.0" encoding="utf-8"?>
<!-- Generator: Adobe Illustrator 14.0.0, SVG Export Plug-In . SVG Version: 6.00 Build 43363)  -->
<!DOCTYPE svg PUBLIC "-//W3C//DTD SVG 1.1//EN" "http://www.w3.org/Graphics/SVG/1.1/DTD/svg11.dtd">
<svg version="1.1" id="Layer_1" xmlns="http://www.w3.org/2000/svg" xmlns:xlink="http://www.w3.org/1999/xlink" x="0px" y="0px"
	 width="792px" height="612px" viewBox="0 0 792 612" enable-background="new 0 0 792 612" xml:space="preserve">
<g>
	<g>
		<defs>
			<rect id="SVGID_1_" x="-807.895" y="-478.983" width="2395.098" height="1850.758"/>
		</defs>
		<clipPath id="SVGID_2_">
			<use xlink:href="#SVGID_1_"  overflow="visible"/>
		</clipPath>
		<path clip-path="url(#SVGID_2_)" fill="#2C303B" d="M488.86,253.427c5.742-15.127,9.994-36.7,3.137-51.579
			c-3.844-8.355-13.293-12.28-21.062-7.075c-6.315,4.241-10.594,12.418-15.334,18.317c-9.474,11.792-22.144,22.935-35.05,30.155
			c-8.828,4.941-8.004,10.354-9.356,19.417c-1.304,8.742-3.53,17.537-1.113,26.609c2.243,8.426,7.599,15.139,14.817,19.944
			c7.621,5.074,11.754,8.678,12.91,18.073c1.479,11.989,4.95,38.45,21.182,38.56l-0.543-1.09c5.317-4.163,9.816-10.998,13.165-16.82
			c3.84-6.664,6.162-15.356,5.842-23.367c-0.356-9.018-3.477-16.932-3.801-26.066c-0.319-9.142-2.913-17.159,2.177-24.983
			C480.299,266.643,485.948,261.102,488.86,253.427"/>
	</g>
	<g>
		<defs>
			<rect id="SVGID_3_" x="-807.895" y="-478.983" width="2395.098" height="1850.758"/>
		</defs>
		<clipPath id="SVGID_4_">
			<use xlink:href="#SVGID_3_"  overflow="visible"/>
		</clipPath>
		<path clip-path="url(#SVGID_4_)" fill="#2C303B" d="M319.262,366.935l-0.541,1.089c16.227-0.11,19.703-26.571,21.177-38.562
			c1.159-9.39,5.292-12.997,12.913-18.066c7.219-4.807,12.571-11.524,14.816-19.95c2.416-9.073,0.19-17.865-1.117-26.608
			c-1.351-9.063-0.525-14.48-9.355-19.417c-12.905-7.217-25.573-18.367-35.044-30.152c-4.739-5.902-9.022-14.081-15.338-18.314
			c-7.76-5.213-17.209-1.288-21.06,7.068c-6.853,14.88-2.607,36.458,3.136,51.583c2.916,7.668,8.559,13.211,13.037,20.091
			c5.087,7.827,2.493,15.84,2.172,24.985c-0.325,9.13-3.443,17.048-3.803,26.068c-0.32,8.005,2.005,16.698,5.841,23.37
			C309.446,355.936,313.949,362.774,319.262,366.935"/>
	</g>
	<g>
		<defs>
			<rect id="SVGID_5_" x="-807.895" y="-478.983" width="2395.098" height="1850.758"/>
		</defs>
		<clipPath id="SVGID_6_">
			<use xlink:href="#SVGID_5_"  overflow="visible"/>
		</clipPath>
		<path clip-path="url(#SVGID_6_)" fill="#2C303B" d="M431.604,418.305c-6.048,3.459-11.833,7.651-17.426,11.703
			c-1.562,1.128-3.12,2.26-4.696,3.381c-2.43,1.735-5.455,3.163-8.665,4.679c-1.144,0.541-2.296,1.091-3.432,1.654v-3.16h-21.606
			v3.518c-1.416-0.727-2.872-1.415-4.319-2.097c-3.209-1.513-6.244-2.938-8.673-4.664c-1.57-1.113-3.135-2.241-4.691-3.36
			c-5.606-4.046-11.405-8.229-17.461-11.68c-8.553-4.871-17.438-8.526-24.474-2.363c-6.116,5.357-8.876,15.135-6.565,23.251
			c1.126,3.942,3.329,6.764,5.455,9.494c2.849,3.642,5.538,7.093,5.584,12.938c0.021,2.869-0.825,5.768-1.645,8.573
			c-1.556,5.318-3.169,10.818,1.398,15.992c3.374,3.828,7.691,5.307,12.351,5.307c14.946,0,33.467-15.224,36.107-17.465
			c0.743-0.627,1.784-1.423,2.99-2.349c1.187-0.909,2.546-1.952,3.943-3.087v1.72h9.03v8.933c-3.049,1.029-5.266,3.885-5.266,7.281
			c0,3.094,1.843,5.75,4.48,6.981c-6.819,0.321-12.868,0.614-12.868,0.614c-4.307-6.951-11.074-3.806-11.074-3.806
			c-8.554,4.483,1.271,11.556,1.271,11.556c-1.534,1.271-3.48,3.218-4.179,5.133c-1.044,2.896,0.921,5.64,3.306,6.975
			c2.177,1.223,4.827,0.836,6.83-0.599c0.9-0.65,1.707-1.434,2.48-2.228c0.257-0.271,1.31-1.854,1.637-1.871
			c0.141-0.008,32.934-1.333,32.934-1.333c1.424,1.126,2.918,2.223,4.485,3.146c2.538,1.472,5.784,2.433,7.89-0.251
			c1.328-1.699,2.369-5.426,1.448-7.553c-0.46-1.068-1.324-1.92-2.293-2.542c-0.308-0.195-1.854-1.192-2.217-0.992
			c2.264-1.271,4.817-3.362,4.73-6.21c-0.045-1.515-1.096-3.364-2.201-4.348c-2.349-2.087-5.732-2.258-8.409-0.771
			c-1.312,0.73-2.488,1.704-3.562,2.738c-0.159,0.143-1.117,1.425-1.308,1.441c0,0-5.449,0.26-11.821,0.563
			c2.305-1.337,3.859-3.801,3.859-6.642c0-4.246-3.446-7.708-7.689-7.72v-8.497h10.105v-0.961c1.107,0.87,2.175,1.688,3.126,2.414
			c1.205,0.924,2.254,1.718,2.993,2.346c2.645,2.229,21.16,17.394,36.1,17.391c4.68,0,9.008-1.487,12.388-5.334
			c4.552-5.183,2.932-10.68,1.364-15.993c-0.826-2.804-1.68-5.703-1.666-8.57c0.034-5.853,2.72-9.297,5.559-12.951
			c2.123-2.735,4.316-5.558,5.44-9.505c2.296-8.123-0.492-17.89-6.619-23.238C449.03,409.737,440.149,413.421,431.604,418.305
			 M392.526,486.507c0,2.903-2.367,5.266-5.272,5.266c-2.901,0-5.266-2.362-5.266-5.266c0-2.021,1.154-3.754,2.821-4.638v1.145
			h2.469v-1.772C390.176,481.25,392.526,483.604,392.526,486.507"/>
	</g>
	<g>
		<defs>
			<rect id="SVGID_7_" x="-807.895" y="-478.983" width="2395.098" height="1850.758"/>
		</defs>
		<clipPath id="SVGID_8_">
			<use xlink:href="#SVGID_7_"  overflow="visible"/>
		</clipPath>
		<path clip-path="url(#SVGID_8_)" fill="#2C303B" d="M371.008,354.649c10.476,7.218,7.786-16.554,16.985-5.473
			c5.335,6.426-10.715,44.323-34.635,50.143c-4.311,1.048-11.866-2.838-15.371-5.525c-0.153,5.96,7.132,11.588,12.383,11.891
			c22.146,1.266,34.155-20.593,40.574-30.06c6.416,9.467,18.428,31.325,40.574,30.06c5.252-0.303,12.533-5.931,12.382-11.891
			c-3.503,2.688-11.056,6.573-15.368,5.525c-23.925-5.819-39.968-43.717-34.632-50.143c9.196-11.081,6.504,12.69,16.981,5.473
			c7.479-5.152-0.113-17.336-4.354-22.172c-4.057-4.609-9.633-7.638-15.579-7.667c-5.951,0.029-11.528,3.058-15.581,7.667
			C371.121,337.313,363.526,349.497,371.008,354.649"/>
	</g>
	<g>
		<defs>
			<rect id="SVGID_9_" x="-807.895" y="-478.983" width="2395.098" height="1850.758"/>
		</defs>
		<clipPath id="SVGID_10_">
			<use xlink:href="#SVGID_9_"  overflow="visible"/>
		</clipPath>
		<path clip-path="url(#SVGID_10_)" fill="#2C303B" d="M430.975,44.176c-13.035-1.672-20.341-4.842-22.188-5.633
			c-10.565,16.815-11.275,36.098-24.212,50.887c-18.666,21.22-74.485,15.056-62.6-22.54c2.644-8.187,11.358-11.797,10.833-8.098
			c-1.41,1.761-7.665,3.787-9.073,12.151c-3.167,18.048,13.119,27.734,26.678,27.469c13.822-0.352,23.243-5.901,29.937-13.207
			c10.653-11.533,22.188-42.613,25.884-47.542c-9.243-2.905-17.258-4.404-26.677-4.84c-25.178-1.235-35.305,24.56-21.48,28.964
			c10.83,3.434,17.167-7.485,16.816-9.95v-0.174c0.882-0.792,1.761-0.441,1.761,0.704c-1.144,9.42-11.184,14.438-19.456,11.623
			c-17.959-6.25-11.271-38.651,21.746-35.659c10.567,0.88,23.068,6.077,28.703,7.661c0.792-0.971,4.575-5.37,6.514-5.37h-0.087
			c2.814-0.881,3.517,3.431,0.611,2.551c-0.79-0.618-3.437,2.377-4.576,3.521c7.57,2.467,28.967,8.367,28.967,2.38
			c0-0.796,0.176-1.321,0.968-1.321c0.613,0,0.879,1.408,0.879,1.847C440.923,42.938,436.522,44.88,430.975,44.176"/>
	</g>
	<g>
		<defs>
			<rect id="SVGID_11_" x="-807.895" y="-478.983" width="2395.098" height="1850.758"/>
		</defs>
		<clipPath id="SVGID_12_">
			<use xlink:href="#SVGID_11_"  overflow="visible"/>
		</clipPath>
		<path clip-path="url(#SVGID_12_)" fill="#2C303B" d="M419.605,93.652c-3.086,0-7.312-2.109-4.665-10.298
			c0.7-2.29,2.375-5.284,4.839-9.244c2.112-3.438,0.531-5.812-6.25,0.528c-2.991,2.729-7.308,7.66-12.327,17.431
			c-0.609,1.235-1.404,1.322-3.254,1.322c-1.324,0.087-2.111,0-2.994,0.525c7.134-14.791,15.676-32.751,24.21-48.509
			c2.031-3.697,3.438-5.725,6.257-5.547c1.142,0.089,2.46,0.527,3.693,0.351c-3.865,3.962-15.313,25.534-22.529,40.236
			c2.371-2.99,4.747-5.721,7.122-7.748c4.229-3.787,13.295-9.333,16.29-8.273c0,0-9.416,16.551-10.562,22.714
			c-0.705,3.609,0.178,4.577,1.32,4.666c4.048,0.262,10.039-11.71,11.886-15.495c0.791-1.585,2.115-0.973,1.23,0.878
			C430.965,83.266,426.119,93.652,419.605,93.652"/>
	</g>
	<g>
		<defs>
			<rect id="SVGID_13_" x="-807.895" y="-478.983" width="2395.098" height="1850.758"/>
		</defs>
		<clipPath id="SVGID_14_">
			<use xlink:href="#SVGID_13_"  overflow="visible"/>
		</clipPath>
		<path clip-path="url(#SVGID_14_)" fill="#2C303B" d="M438.88,93.657c-4.4,0-8.364-2.908-8.454-8.453
			c-0.085-5.283,2.906-11.889,6.783-16.462c4.485-5.285,11.177-8.631,15.053-5.725c3.345,2.551,0.794,8.541-4.842,12.854
			c-2.729,2.028-8.453,3.873-10.828,3.873c-1.324,3.17-2.818,12.062,2.99,12.062c7.749,0,12.504-10.388,14.53-15.054
			c0.7-1.584,2.464-1.76,1.581,0.088C452.442,83.882,448.653,93.657,438.88,93.657 M442.496,69.972
			c-2.292,2.818-4.497,6.692-5.287,8.276c1.584,0,6.166-1.233,9.333-3.874C453.76,68.3,453.32,56.853,442.496,69.972"/>
	</g>
	<g>
		<defs>
			<rect id="SVGID_15_" x="-807.895" y="-478.983" width="2395.098" height="1850.758"/>
		</defs>
		<clipPath id="SVGID_16_">
			<use xlink:href="#SVGID_15_"  overflow="visible"/>
		</clipPath>
		<path clip-path="url(#SVGID_16_)" fill="#2C303B" d="M158.728,331.334c-0.148-3.269,0.115-7.477,0.686-11.812
			c0.971-7.365,2.805-12,6.082-15.287c3.493-3.603,8.62-5.483,15.471-4.581c7.361,0.973,12.087,4.321,14.748,8.392
			c2.833,4.495,3.611,10.93,2.619,18.461c-0.592,4.51-1.312,7.729-1.872,9.799L158.728,331.334z M191.21,326.789
			c0.268-0.721,0.433-1.975,0.569-3.004c1.104-7.926-2.549-13.692-11.74-14.902c-8.278-1.092-12.833,3.069-13.828,10.605
			c-0.247,1.885-0.247,3.218-0.173,3.983L191.21,326.789z"/>
	</g>
	<g>
		<defs>
			
				<rect id="SVGID_17_" x="-1167.198" y="-843.12" transform="matrix(0.9639 0.2661 -0.2661 0.9639 22.9974 -5.1256)" width="2395.224" height="1850.856"/>
		</defs>
		<clipPath id="SVGID_18_">
			<use xlink:href="#SVGID_17_"  overflow="visible"/>
		</clipPath>
		
			<rect x="165.956" y="284.284" transform="matrix(0.964 0.2661 -0.2661 0.964 83.4791 -38.9127)" clip-path="url(#SVGID_18_)" fill="#2C303B" width="38.816" height="8.753"/>
	</g>
	<g>
		<defs>
			<rect id="SVGID_19_" x="-807.895" y="-478.983" width="2395.098" height="1850.758"/>
		</defs>
		<clipPath id="SVGID_20_">
			<use xlink:href="#SVGID_19_"  overflow="visible"/>
		</clipPath>
		<path clip-path="url(#SVGID_20_)" fill="#2C303B" d="M198.742,279.737c1.984-1.68,4.494-4.637,5.904-8.104
			c1.52-3.732,0.774-6.336-1.626-7.314c-2.187-0.889-4.218,0.275-7.464,3.989c-4.562,5.106-9.478,7.714-14.757,5.565
			c-6.133-2.495-8.672-9.557-5.246-17.985c1.669-4.106,3.663-6.716,5.543-8.438l5.769,4.459c-1.252,1.106-3.331,3.308-4.741,6.776
			c-1.432,3.519-0.473,5.897,1.342,6.636c2.295,0.935,4.111-0.63,7.833-4.586c4.927-5.395,9.426-6.983,14.546-4.901
			c6.031,2.452,9.285,9.122,5.272,18.99c-1.669,4.104-4.441,7.704-6.383,9.277L198.742,279.737z"/>
	</g>
	<g>
		<defs>
			<rect id="SVGID_21_" x="-807.895" y="-478.983" width="2395.098" height="1850.758"/>
		</defs>
		<clipPath id="SVGID_22_">
			<use xlink:href="#SVGID_21_"  overflow="visible"/>
		</clipPath>
		<polygon clip-path="url(#SVGID_22_)" fill="#2C303B" points="195.423,233.476 190.039,242.47 183.713,238.685 199.035,213.085 
			205.364,216.875 199.919,225.964 226.902,242.115 222.406,249.626 		"/>
	</g>
	<g>
		<defs>
			
				<rect id="SVGID_23_" x="-967.025" y="-995.816" transform="matrix(0.7925 0.6099 -0.6099 0.7925 4.8921 -155.2198)" width="2395.14" height="1850.79"/>
		</defs>
		<clipPath id="SVGID_24_">
			<use xlink:href="#SVGID_23_"  overflow="visible"/>
		</clipPath>
		
			<rect x="202.784" y="210.671" transform="matrix(0.7925 0.6099 -0.6099 0.7925 177.2534 -90.8848)" clip-path="url(#SVGID_24_)" fill="#2C303B" width="38.813" height="8.752"/>
	</g>
	<g>
		<defs>
			<rect id="SVGID_25_" x="-807.895" y="-478.983" width="2395.098" height="1850.758"/>
		</defs>
		<clipPath id="SVGID_26_">
			<use xlink:href="#SVGID_25_"  overflow="visible"/>
		</clipPath>
		<path clip-path="url(#SVGID_26_)" fill="#2C303B" d="M243.813,218.188l-27.242-27.617l7.292-7.197l15.724,4.463
			c4.509,1.291,9.501,3.158,13.844,5.021l0.082-0.083c-3.968-3.284-7.77-6.892-11.892-11.07l-7.922-8.033l5.738-5.659l27.242,27.622
			l-6.556,6.464l-16.408-4.833c-4.59-1.372-9.915-3.078-14.416-5.022l-0.167,0.163c3.843,3.488,7.766,7.297,12.214,11.803
			l8.203,8.32L243.813,218.188z"/>
	</g>
	<g>
		<defs>
			<rect id="SVGID_27_" x="-807.895" y="-478.983" width="2395.098" height="1850.758"/>
		</defs>
		<clipPath id="SVGID_28_">
			<use xlink:href="#SVGID_27_"  overflow="visible"/>
		</clipPath>
		<path clip-path="url(#SVGID_28_)" fill="#2C303B" d="M297.224,172.519c-1.743,2.266-5.307,6.161-9.574,8.997
			c-5.897,3.922-11.154,5.276-16.008,4.422c-4.805-0.884-9.241-4.02-12.398-8.766c-7.097-10.77-3.359-22.105,7.236-29.155
			c4.168-2.77,7.924-4.091,9.983-4.427l2.388,6.919c-2.315,0.362-4.856,1.224-8.404,3.583c-6.091,4.051-8.444,10.595-3.789,17.595
			c4.463,6.71,11.269,7.791,17.258,3.804c1.631-1.085,2.846-2.168,3.262-2.79l-4.529-6.809l-4.984,3.313l-3.796-5.701l12.033-8.006
			L297.224,172.519z"/>
	</g>
	<g>
		<defs>
			<rect id="SVGID_29_" x="-807.895" y="-478.983" width="2395.098" height="1850.758"/>
		</defs>
		<clipPath id="SVGID_30_">
			<use xlink:href="#SVGID_29_"  overflow="visible"/>
		</clipPath>
		<path clip-path="url(#SVGID_30_)" fill="#2C303B" d="M295.875,132.471l8.571,20.574c2.59,6.216,6.293,8.357,10.383,6.651
			c4.252-1.771,5.353-5.725,2.694-12.103l-8.573-20.572l8.082-3.366l8.373,20.095c4.605,11.058,1.22,18.645-8.138,22.542
			c-9.039,3.766-16.406,0.908-21.145-10.465l-8.328-19.99L295.875,132.471z"/>
	</g>
	<g>
		<defs>
			
				<rect id="SVGID_31_" x="-575.516" y="-916.367" transform="matrix(0.2557 0.9668 -0.9668 0.2557 471.7755 -594.669)" width="2395.203" height="1850.837"/>
		</defs>
		<clipPath id="SVGID_32_">
			<use xlink:href="#SVGID_31_"  overflow="visible"/>
		</clipPath>
		
			<rect x="318.155" y="133.883" transform="matrix(0.2557 0.9668 -0.9668 0.2557 384.9072 -223.4265)" clip-path="url(#SVGID_32_)" fill="#2C303B" width="38.799" height="8.752"/>
	</g>
	<g>
		<defs>
			<rect id="SVGID_33_" x="-807.895" y="-478.983" width="2395.098" height="1850.758"/>
		</defs>
		<clipPath id="SVGID_34_">
			<use xlink:href="#SVGID_33_"  overflow="visible"/>
		</clipPath>
		<path clip-path="url(#SVGID_34_)" fill="#2C303B" d="M351.963,145.303c2.452,0.871,6.269,1.542,9.974,1.013
			c3.987-0.571,5.86-2.525,5.494-5.092c-0.337-2.335-2.365-3.498-7.205-4.435c-6.712-1.364-11.436-4.291-12.242-9.935
			c-0.941-6.552,3.876-12.304,12.88-13.596c4.392-0.629,7.645-0.222,10.079,0.536l-0.94,7.232c-1.589-0.531-4.537-1.214-8.239-0.682
			c-3.761,0.538-5.331,2.565-5.056,4.501c0.355,2.45,2.616,3.235,7.91,4.453c7.142,1.532,10.783,4.616,11.564,10.088
			c0.925,6.441-3.191,12.614-13.737,14.125c-4.389,0.63-8.89,0.056-11.227-0.834L351.963,145.303z"/>
	</g>
	<g>
		<defs>
			<rect id="SVGID_35_" x="-807.895" y="-478.983" width="2395.098" height="1850.758"/>
		</defs>
		<clipPath id="SVGID_36_">
			<use xlink:href="#SVGID_35_"  overflow="visible"/>
		</clipPath>
		<polygon clip-path="url(#SVGID_36_)" fill="#2C303B" points="392.093,111.677 391.657,126.641 406.101,127.054 406.536,112.098 
			415.284,112.351 414.161,151.129 405.412,150.878 405.882,134.713 391.435,134.292 390.972,150.465 382.224,150.211 
			383.346,111.428 		"/>
	</g>
	<g>
		<defs>
			<rect id="SVGID_37_" x="-807.895" y="-478.983" width="2395.098" height="1850.758"/>
		</defs>
		<clipPath id="SVGID_38_">
			<use xlink:href="#SVGID_37_"  overflow="visible"/>
		</clipPath>
		<polygon clip-path="url(#SVGID_38_)" fill="#2C303B" points="446.092,140.688 432.097,137.848 430.267,146.877 445.897,150.05 
			444.468,157.102 420.256,152.194 427.97,114.158 451.391,118.905 449.962,125.961 435.115,122.95 433.516,130.85 447.51,133.689 
					"/>
	</g>
	<g>
		<defs>
			<rect id="SVGID_39_" x="-807.895" y="-478.983" width="2395.098" height="1850.758"/>
		</defs>
		<clipPath id="SVGID_40_">
			<use xlink:href="#SVGID_39_"  overflow="visible"/>
		</clipPath>
		<path clip-path="url(#SVGID_40_)" fill="#2C303B" d="M462.699,122.478c3.212,0.64,7.237,1.91,11.305,3.509
			c6.921,2.712,10.984,5.607,13.386,9.581c2.657,4.261,3.246,9.693,0.724,16.125c-2.716,6.917-7.109,10.703-11.695,12.307
			c-5.052,1.665-11.485,0.877-18.563-1.902c-4.234-1.664-7.188-3.13-9.063-4.177L462.699,122.478z M459.298,155.114
			c0.632,0.432,1.812,0.894,2.782,1.275c7.429,2.979,13.906,0.817,17.298-7.814c3.049-7.776,0.104-13.202-6.972-15.98
			c-1.771-0.692-3.071-1.015-3.833-1.128L459.298,155.114z"/>
	</g>
	<g>
		<defs>
			<rect id="SVGID_41_" x="-807.895" y="-478.983" width="2395.098" height="1850.758"/>
		</defs>
		<clipPath id="SVGID_42_">
			<use xlink:href="#SVGID_41_"  overflow="visible"/>
		</clipPath>
		<polygon clip-path="url(#SVGID_42_)" fill="#2C303B" points="523.656,151.749 514.896,163.892 526.612,172.344 535.374,160.206 
			542.473,165.328 519.767,196.797 512.668,191.679 522.138,178.56 510.412,170.1 500.95,183.229 493.852,178.103 516.556,146.629 
					"/>
	</g>
	<g>
		<defs>
			<rect id="SVGID_43_" x="-807.895" y="-478.983" width="2395.098" height="1850.758"/>
		</defs>
		<clipPath id="SVGID_44_">
			<use xlink:href="#SVGID_43_"  overflow="visible"/>
		</clipPath>
		<path clip-path="url(#SVGID_44_)" fill="#2C303B" d="M534.949,213.109c-7.802-8.395-6.066-19.294,2.03-26.825
			c8.524-7.922,19.987-8.363,27.754-0.011c8.126,8.731,6.014,19.576-1.828,26.873c-9.36,8.707-20.188,8.314-27.912,0.005
			L534.949,213.109z M540.329,208.656c4.039,4.347,10.441,3.03,16.012-2.148c5.104-4.744,7.251-11.229,3.135-15.655
			c-4.121-4.43-10.736-2.918-16.053,2.024c-5.352,4.982-7.134,11.436-3.139,15.74L540.329,208.656z"/>
	</g>
	<g>
		<defs>
			<rect id="SVGID_45_" x="-807.895" y="-478.983" width="2395.098" height="1850.758"/>
		</defs>
		<clipPath id="SVGID_46_">
			<use xlink:href="#SVGID_45_"  overflow="visible"/>
		</clipPath>
		<path clip-path="url(#SVGID_46_)" fill="#2C303B" d="M588.218,217.009l-18.965,11.716c-5.73,3.542-7.257,7.535-4.931,11.303
			c2.422,3.924,6.498,4.384,12.38,0.75l18.965-11.714l4.598,7.452l-18.522,11.439c-10.19,6.297-18.222,4.148-23.551-4.476
			c-5.146-8.331-3.486-16.061,7.002-22.536l18.422-11.382L588.218,217.009z"/>
	</g>
	<g>
		<defs>
			<rect id="SVGID_47_" x="-807.895" y="-478.983" width="2395.098" height="1850.758"/>
		</defs>
		<clipPath id="SVGID_48_">
			<use xlink:href="#SVGID_47_"  overflow="visible"/>
		</clipPath>
		<path clip-path="url(#SVGID_48_)" fill="#2C303B" d="M569.832,262.121l36.325-13.683l3.614,9.589l-10.464,12.564
			c-3.02,3.595-6.753,7.402-10.22,10.617l0.041,0.109c4.61-2.291,9.456-4.303,14.955-6.374l10.562-3.978l2.839,7.545l-36.327,13.683
			l-3.25-8.623l11.094-13.039c3.12-3.64,6.846-7.81,10.448-11.14l-0.081-0.214c-4.744,2.096-9.828,4.135-15.753,6.365l-10.944,4.122
			L569.832,262.121z"/>
	</g>
	<g>
		<defs>
			<rect id="SVGID_49_" x="-807.895" y="-478.983" width="2395.098" height="1850.758"/>
		</defs>
		<clipPath id="SVGID_50_">
			<use xlink:href="#SVGID_49_"  overflow="visible"/>
		</clipPath>
		<path clip-path="url(#SVGID_50_)" fill="#2C303B" d="M620.386,291.509c1.094,3.089,2.062,7.188,2.78,11.503
			c1.213,7.328,0.813,12.296-1.367,16.396c-2.298,4.465-6.649,7.757-13.471,8.885c-7.326,1.216-12.823-0.617-16.553-3.735
			c-4.018-3.479-6.636-9.404-7.879-16.904c-0.739-4.488-0.99-7.772-1.059-9.919L620.386,291.509z M590.627,305.312
			c-0.047,0.764,0.16,2.017,0.332,3.04c1.253,7.903,6.427,12.358,15.566,10.839c8.237-1.364,11.384-6.67,10.145-14.167
			c-0.313-1.875-0.696-3.154-0.994-3.865L590.627,305.312z"/>
	</g>
	<g>
		<defs>
			<rect id="SVGID_51_" x="-807.895" y="-478.983" width="2395.098" height="1850.758"/>
		</defs>
		<clipPath id="SVGID_52_">
			<use xlink:href="#SVGID_51_"  overflow="visible"/>
		</clipPath>
		<path clip-path="url(#SVGID_52_)" fill="#2C303B" d="M389.653,535.271c-113.961,0-206.719-90.783-209.906-203.972
			c-0.057,1.998-0.089,4.007-0.089,6.024c0,115.979,94.016,209.993,209.995,209.993c115.977,0,210-94.018,210-209.993
			c0-2.018-0.038-4.026-0.091-6.024C596.373,444.487,503.621,535.271,389.653,535.271"/>
	</g>
</g>
</svg>
